<svg width="432" height="587" viewBox="0 0 432 587" fill="none" xmlns="http://www.w3.org/2000/svg">
<path d="M17.605 533.577H26.605V536.577H20.905V542.127H25.435V545.127H20.905V551.577H26.605V554.577H17.605V533.577ZM32.852 554.877C31.252 554.877 30.042 554.427 29.222 553.527C28.402 552.607 27.992 551.297 27.992 549.597V548.397H31.112V549.837C31.112 551.197 31.682 551.877 32.822 551.877C33.382 551.877 33.802 551.717 34.082 551.397C34.382 551.057 34.532 550.517 34.532 549.777C34.532 548.897 34.332 548.127 33.932 547.467C33.532 546.787 32.792 545.977 31.712 545.037C30.352 543.837 29.402 542.757 28.862 541.797C28.322 540.817 28.052 539.717 28.052 538.497C28.052 536.837 28.472 535.557 29.312 534.657C30.152 533.737 31.372 533.277 32.972 533.277C34.552 533.277 35.742 533.737 36.542 534.657C37.362 535.557 37.772 536.857 37.772 538.557V539.427H34.652V538.347C34.652 537.627 34.512 537.107 34.232 536.787C33.952 536.447 33.542 536.277 33.002 536.277C31.902 536.277 31.352 536.947 31.352 538.287C31.352 539.047 31.552 539.757 31.952 540.417C32.372 541.077 33.122 541.877 34.202 542.817C35.582 544.017 36.532 545.107 37.052 546.087C37.572 547.067 37.832 548.217 37.832 549.537C37.832 551.257 37.402 552.577 36.542 553.497C35.702 554.417 34.472 554.877 32.852 554.877ZM42.3041 536.577H38.8541V533.577H49.0541V536.577H45.6041V554.577H42.3041V536.577ZM48.4546 551.397H51.6346V554.577H48.4546V551.397Z" fill="#E9C664"/>
<path d="M362.763 552.297C362.763 550.797 363.003 549.517 363.483 548.457C363.963 547.377 364.823 546.187 366.063 544.887C367.283 543.587 368.123 542.477 368.583 541.557C369.063 540.637 369.303 539.677 369.303 538.677C369.303 537.777 369.153 537.157 368.853 536.817C368.573 536.457 368.153 536.277 367.593 536.277C366.453 536.277 365.883 536.967 365.883 538.347V540.597H362.763V538.557C362.763 536.857 363.183 535.557 364.023 534.657C364.863 533.737 366.083 533.277 367.683 533.277C369.283 533.277 370.503 533.737 371.343 534.657C372.183 535.557 372.603 536.857 372.603 538.557C372.603 539.837 372.293 541.087 371.673 542.307C371.073 543.527 370.023 544.927 368.523 546.507C367.543 547.547 366.883 548.397 366.543 549.057C366.203 549.697 366.033 550.387 366.033 551.127V551.577H372.303V554.577H362.763V552.297ZM379.604 554.877C377.984 554.877 376.744 554.417 375.884 553.497C375.024 552.577 374.594 551.277 374.594 549.597V538.557C374.594 536.877 375.024 535.577 375.884 534.657C376.744 533.737 377.984 533.277 379.604 533.277C381.224 533.277 382.464 533.737 383.324 534.657C384.184 535.577 384.614 536.877 384.614 538.557V549.597C384.614 551.277 384.184 552.577 383.324 553.497C382.464 554.417 381.224 554.877 379.604 554.877ZM379.604 551.877C380.744 551.877 381.314 551.187 381.314 549.807V538.347C381.314 536.967 380.744 536.277 379.604 536.277C378.464 536.277 377.894 536.967 377.894 538.347V549.807C377.894 551.187 378.464 551.877 379.604 551.877ZM386.786 552.297C386.786 550.797 387.026 549.517 387.506 548.457C387.986 547.377 388.846 546.187 390.086 544.887C391.306 543.587 392.146 542.477 392.606 541.557C393.086 540.637 393.326 539.677 393.326 538.677C393.326 537.777 393.176 537.157 392.876 536.817C392.596 536.457 392.176 536.277 391.616 536.277C390.476 536.277 389.906 536.967 389.906 538.347V540.597H386.786V538.557C386.786 536.857 387.206 535.557 388.046 534.657C388.886 533.737 390.106 533.277 391.706 533.277C393.306 533.277 394.526 533.737 395.366 534.657C396.206 535.557 396.626 536.857 396.626 538.557C396.626 539.837 396.316 541.087 395.696 542.307C395.096 543.527 394.046 544.927 392.546 546.507C391.566 547.547 390.906 548.397 390.566 549.057C390.226 549.697 390.056 550.387 390.056 551.127V551.577H396.326V554.577H386.786V552.297ZM404.378 550.767H398.078V547.767L404.078 533.577H407.678V547.767H409.238V550.767H407.678V554.577H404.378V550.767ZM404.378 547.767V539.577H404.318L401.078 547.767H404.378Z" fill="#E9C664"/>
<path d="M217.149 76.7522C218.549 76.7523 219.683 77.8863 219.683 79.2844C219.683 80.6825 218.549 81.8166 217.149 81.8167C215.749 81.8167 214.615 80.6826 214.615 79.2844C214.615 77.8862 215.749 76.7522 217.149 76.7522Z" fill="#BE9359" stroke="#E9C664"/>
<path d="M205.707 19.6483C205.708 15.6963 204.382 11.8583 201.94 8.74955C199.499 5.64079 196.083 3.44132 192.242 2.50371C188.401 1.56611 184.355 1.94469 180.755 3.57875C177.154 5.21281 174.207 8.00771 172.385 11.5154C170.564 15.0232 169.973 19.0405 170.709 22.9236C171.444 26.8066 173.463 30.3305 176.441 32.9302C179.42 35.5299 183.185 37.0549 187.134 37.2608C191.083 37.4667 194.987 36.3415 198.22 34.0656C200.532 32.4377 202.419 30.2783 203.722 27.7693C205.025 25.2603 205.706 22.4751 205.707 19.6483Z" stroke="#E9C664" stroke-width="4" stroke-linecap="round" stroke-linejoin="round"/>
<path d="M263.49 19.6512C263.489 16.1647 262.453 12.7568 260.514 9.85837C258.575 6.95995 255.82 4.70116 252.597 3.36756C249.373 2.03397 245.827 1.68544 242.405 2.36606C238.984 3.04669 235.841 4.72591 233.374 7.1914C230.907 9.65689 229.228 12.798 228.547 16.2175C227.866 19.637 228.215 23.1814 229.55 26.4027C230.885 29.6239 233.145 32.3773 236.046 34.3148C238.946 36.2523 242.356 37.2868 245.845 37.2876C248.162 37.2883 250.457 36.8325 252.599 35.9464C254.74 35.0603 256.685 33.7612 258.324 32.1234C259.963 30.4855 261.262 28.541 262.149 26.401C263.035 24.261 263.491 21.9674 263.49 19.6512V19.6512Z" stroke="#E9C664" stroke-width="4" stroke-linecap="round" stroke-linejoin="round"/>
<path d="M246.238 148.863C246.236 145.412 245.749 141.978 244.793 138.661L227.493 78.6546L221.434 57.6172C220.29 58.0093 219.09 58.2082 217.881 58.2059C217.571 58.2083 217.261 58.194 216.953 58.1629V58.1629C215.128 58.0052 213.371 57.4003 211.836 56.4018C210.301 55.4033 209.036 54.042 208.153 52.4384L198.038 34.1924C195.096 36.2142 191.608 37.2947 188.038 37.2905L206.413 78.6655L216.961 102.318L243.696 162.282C245.372 158.006 246.234 153.455 246.238 148.863V148.863Z" stroke="#E9C664" stroke-width="4" stroke-linecap="round" stroke-linejoin="round"/>
<path d="M248.116 37.1357C244.396 37.6224 240.618 36.9077 237.334 35.0959L221.441 57.6154L227.954 80.2287L248.116 37.1357Z" stroke="#E9C664" stroke-width="4" stroke-linecap="round" stroke-linejoin="round"/>
<path d="M217.114 102.646L206.414 78.6609L188.929 138.661C186.656 146.439 187.046 154.754 190.037 162.285L217.114 102.646Z" stroke="#E9C664" stroke-width="4" stroke-linecap="round" stroke-linejoin="round"/>
<path d="M115.902 81.7533L2.42627 82.9814L3.92184 170.903" stroke="#E9C664" stroke-opacity="0.913725" stroke-width="4.00058" stroke-linecap="round" stroke-linejoin="round"/>
<path d="M314.819 86.2402H428.287V174.162" stroke="#E9C664" stroke-opacity="0.913725" stroke-width="4" stroke-linecap="round" stroke-linejoin="round"/>
<path d="M4.3125 391.548V489.974L218.903 584L429.574 489.974V391.548" stroke="#E9C664" stroke-opacity="0.913725" stroke-width="4" stroke-linecap="round"/>
<path d="M65.446 496.357V489.197H65.926C67.406 494.077 69.846 495.477 73.126 495.477C76.086 495.477 77.206 494.397 77.206 492.877C77.206 491.077 75.246 490.677 72.206 489.837C69.006 488.957 65.446 487.717 65.446 483.277C65.446 479.197 68.246 476.517 72.486 476.517C74.246 476.517 75.446 476.957 76.526 477.437C77.006 477.637 77.166 477.757 77.646 477.757C78.246 477.757 78.526 477.437 79.046 476.437H79.486V482.557H79.006C77.566 478.877 75.526 477.357 72.686 477.357C70.046 477.357 68.966 478.437 68.966 479.677C68.966 481.517 71.366 481.957 74.006 482.677C77.166 483.517 80.686 484.797 80.686 489.517C80.686 494.077 77.726 496.357 73.206 496.357C71.286 496.357 69.926 495.957 68.406 495.197C68.166 495.037 67.806 494.877 67.646 494.877C67.126 494.877 66.566 495.237 65.926 496.357H65.446ZM81.8697 465.957H91.5097V480.597C92.1897 478.597 93.5097 476.517 97.4697 476.517C101.19 476.517 103.67 478.357 103.67 483.197V495.237H105.91V495.957H94.5897V495.237H96.2297V482.237C96.2297 478.837 95.7497 478.437 94.7497 478.437C93.0697 478.437 91.5097 480.957 91.5097 484.197V495.237H93.2297V495.957H81.8697V495.237H84.0697V466.677H81.8697V465.957ZM116.118 486.557H117.278V483.477C117.278 478.397 116.838 477.077 115.238 477.077C114.518 477.077 113.358 477.397 113.358 478.677C113.358 478.997 113.438 479.397 113.598 479.837H114.598C114.798 480.357 114.918 480.877 114.918 481.637C114.918 483.517 113.398 484.757 111.398 484.757C108.918 484.757 107.958 483.397 107.958 481.437C107.958 478.077 110.878 476.517 116.318 476.517C122.598 476.517 124.718 478.277 124.718 484.077V492.197C124.718 493.837 125.198 494.277 125.878 494.277C126.598 494.277 127.278 493.517 127.478 490.157L128.078 490.197C127.878 494.997 126.398 496.357 122.958 496.357C119.718 496.357 117.918 495.357 117.438 493.397C116.798 495.317 115.638 496.357 112.838 496.357C110.038 496.357 106.918 495.517 106.918 491.517C106.918 487.477 110.398 486.557 116.118 486.557ZM115.558 494.757C116.318 494.757 117.278 493.477 117.278 490.917V487.197H116.998C115.318 487.197 114.518 488.397 114.518 490.837V491.477C114.518 494.357 114.798 494.757 115.558 494.757ZM125.688 477.637V476.917H137.648V477.637H135.128L139.928 490.917L144.248 477.637H141.568V476.917H146.968V477.637H145.208L139.288 495.957H134.728L127.328 477.637H125.688ZM146.562 486.477C146.562 479.557 151.282 476.517 156.842 476.517C163.122 476.517 165.802 479.677 165.562 485.637H154.282V487.197C154.282 491.917 155.122 495.117 159.002 495.117C161.962 495.117 163.962 493.237 164.842 490.157L165.562 490.277C164.642 493.717 162.562 496.357 156.882 496.357C149.762 496.357 146.562 492.277 146.562 486.477ZM154.322 484.837H158.442V482.877C158.442 478.677 158.122 477.277 156.482 477.277C155.082 477.277 154.322 478.637 154.322 482.877V484.837ZM167.516 496.357V489.197H167.996C169.476 494.077 171.916 495.477 175.196 495.477C178.156 495.477 179.276 494.397 179.276 492.877C179.276 491.077 177.316 490.677 174.276 489.837C171.076 488.957 167.516 487.717 167.516 483.277C167.516 479.197 170.316 476.517 174.556 476.517C176.316 476.517 177.516 476.957 178.596 477.437C179.076 477.637 179.236 477.757 179.716 477.757C180.316 477.757 180.596 477.437 181.116 476.437H181.556V482.557H181.076C179.636 478.877 177.596 477.357 174.756 477.357C172.116 477.357 171.036 478.437 171.036 479.677C171.036 481.517 173.436 481.957 176.076 482.677C179.236 483.517 182.756 484.797 182.756 489.517C182.756 494.077 179.796 496.357 175.276 496.357C173.356 496.357 171.996 495.957 170.476 495.197C170.236 495.037 169.876 494.877 169.716 494.877C169.196 494.877 168.636 495.237 167.996 496.357H167.516ZM211.328 504.997C214.048 504.997 215.408 501.917 215.408 498.557C215.408 496.077 214.448 494.437 213.288 492.877C211.608 494.797 209.128 496.357 204.768 496.357C198.408 496.357 193.328 494.357 193.328 488.877C193.328 485.477 194.928 483.197 199.608 482.157C197.368 480.117 196.088 478.077 196.088 475.237C196.088 469.757 200.608 467.517 205.288 467.517C210.888 467.517 213.288 469.717 213.288 472.837C213.288 475.597 211.248 477.797 206.848 479.317C207.728 479.917 208.768 480.597 209.968 481.357C212.088 482.717 214.248 484.077 216.048 485.797C216.488 483.757 216.688 481.797 216.728 479.957H213.568V479.157H220.528V479.957H217.728C217.688 482.237 217.488 484.477 216.968 486.717C218.888 488.837 220.448 490.917 220.448 494.837C220.448 500.557 215.688 505.957 210.488 505.957C207.008 505.957 205.008 504.437 205.008 501.917C205.008 499.917 206.408 498.557 208.328 498.557C210.368 498.557 211.528 499.557 211.528 501.437C211.528 501.837 211.448 502.317 211.288 502.877H209.888C209.488 504.077 209.728 504.997 211.328 504.997ZM205.888 495.317C209.168 495.317 211.248 493.837 212.608 492.037C211.288 490.637 209.848 489.477 207.448 487.877C204.528 485.957 202.048 484.397 200.168 482.757C199.768 483.597 199.568 484.997 199.568 487.757C199.568 493.437 201.808 495.317 205.888 495.317ZM201.488 472.437C201.488 474.917 202.488 476.317 206.128 478.837C208.608 477.517 208.648 475.717 208.648 473.077C208.648 469.877 207.448 468.357 205.168 468.357C203.488 468.357 201.488 469.197 201.488 472.437ZM233.206 490.237V477.637H231.006V476.917H233.206V471.757L240.646 469.917V476.917H245.846V477.637H240.646V491.117C240.646 493.477 241.006 494.757 242.406 494.757C244.326 494.757 245.526 492.997 245.886 490.277L246.566 490.357C246.206 493.477 244.886 496.357 240.006 496.357C236.046 496.357 233.206 495.197 233.206 490.237ZM260.308 478.037C258.388 478.037 256.588 480.917 256.588 484.517V495.237H259.428V495.957H246.948V495.237H249.148V477.637H246.948V476.917H256.588V480.757C257.308 477.917 259.548 476.517 261.948 476.517C264.308 476.517 266.188 477.757 266.188 480.797C266.188 483.077 264.988 484.597 262.828 484.597C260.148 484.597 258.868 482.917 259.708 480.077H261.148C261.948 478.437 261.148 478.037 260.308 478.037ZM268.713 470.437C268.713 468.477 269.793 466.717 272.793 466.717C275.273 466.717 276.753 467.957 276.753 470.397C276.753 472.517 275.593 474.157 272.713 474.157C269.473 474.157 268.713 472.117 268.713 470.437ZM266.593 476.917H276.393V495.237H278.633V495.957H266.753V495.237H268.953V477.637H266.593V476.917ZM279.448 476.917H289.088V480.597C289.728 478.597 291.048 476.517 294.728 476.517C297.568 476.517 299.688 477.757 300.368 480.837C301.008 478.837 302.648 476.517 306.248 476.517C309.728 476.517 312.128 478.357 312.128 483.197V495.237H314.368V495.957H303.288V495.237H304.688V482.237C304.688 478.837 304.248 478.437 303.528 478.437C302.088 478.437 300.608 480.597 300.608 483.957V495.237H302.048V495.957H291.768V495.237H293.168V482.237C293.168 478.837 292.728 478.437 292.008 478.437C290.528 478.437 289.088 480.957 289.088 484.197V495.237H290.528V495.957H279.448V495.237H281.648V477.637H279.448V476.917ZM315.876 496.357V489.197H316.356C317.836 494.077 320.276 495.477 323.556 495.477C326.516 495.477 327.636 494.397 327.636 492.877C327.636 491.077 325.676 490.677 322.636 489.837C319.436 488.957 315.876 487.717 315.876 483.277C315.876 479.197 318.676 476.517 322.916 476.517C324.676 476.517 325.876 476.957 326.956 477.437C327.436 477.637 327.596 477.757 328.076 477.757C328.676 477.757 328.956 477.437 329.476 476.437H329.916V482.557H329.436C327.996 478.877 325.956 477.357 323.116 477.357C320.476 477.357 319.396 478.437 319.396 479.677C319.396 481.517 321.796 481.957 324.436 482.677C327.596 483.517 331.116 484.797 331.116 489.517C331.116 494.077 328.156 496.357 323.636 496.357C321.716 496.357 320.356 495.957 318.836 495.197C318.596 495.037 318.236 494.877 318.076 494.877C317.556 494.877 316.996 495.237 316.356 496.357H315.876Z" fill="white"/>
<path d="M191.44 366.716C187.023 366.708 182.688 367.913 178.909 370.199C175.13 372.486 172.052 375.766 170.012 379.681C166.216 387.229 159.723 393.078 151.819 396.071C149.713 396.9 147.481 397.362 145.219 397.438C139.292 397.458 133.501 395.663 128.625 392.296C132.412 401.005 138.686 408.404 146.661 413.565C154.636 418.727 163.958 421.422 173.459 421.313C184.299 421.356 194.852 417.837 203.493 411.296C215.23 401.922 214.687 390.609 214.687 390.609C214.688 377.412 204.741 366.716 191.44 366.716Z" stroke="#E9C664" stroke-width="4" stroke-linecap="round" stroke-linejoin="round"/>
<path d="M284.011 397.432C281.749 397.358 279.517 396.896 277.411 396.066C269.508 393.075 263.017 387.228 259.221 379.682C257.18 375.767 254.103 372.487 250.324 370.201C246.545 367.914 242.21 366.709 237.793 366.717C224.493 366.717 214.545 377.411 214.545 390.603C214.545 390.603 213.998 401.913 225.739 411.29C234.381 417.83 244.934 421.349 255.773 421.307C265.273 421.415 274.594 418.72 282.569 413.559C290.544 408.398 296.818 401 300.605 392.292C295.729 395.659 289.938 397.453 284.011 397.432Z" stroke="#E9C664" stroke-width="4" stroke-linecap="round" stroke-linejoin="round"/>
</svg>
